/* XPM */
static char *_eb3b58dd90a4d8ef99961d226cafeebIx2CzqWMyfc5mN1V[] = {
/* columns rows colors chars-per-pixel */
"64 64 148 2 ",
"   c #00AC9F",
".  c #00ADA0",
"X  c #00B2A6",
"o  c #00B6AB",
"O  c #00B9AE",
"+  c #00BDB3",
"@  c #00C1B7",
"#  c #00C5BB",
"$  c #09C3BA",
"%  c #00C8BF",
"&  c #1DC0B7",
"*  c #15C5BB",
"=  c #1BC6BD",
"-  c #13C8BF",
";  c #05C9C1",
":  c #0DCBC3",
">  c #13CCC4",
",  c #1BCEC6",
"<  c #24CCC4",
"1  c #2DCDC5",
"2  c #22CFC8",
"3  c #3ECCC4",
"4  c #23D0C8",
"5  c #2CD2CB",
"6  c #34D3CC",
"7  c #3BD3CC",
"8  c #3ED6D0",
"9  c #44CDC5",
"0  c #49CEC6",
"q  c #51CFC8",
"w  c #44D5CD",
"e  c #4CD5CE",
"r  c #54D5CE",
"t  c #45D7D1",
"y  c #4CD7D1",
"u  c #4DD9D3",
"i  c #51D7D1",
"p  c #53DAD4",
"a  c #5CDCD7",
"s  c #5FDDD8",
"d  c #60DDD7",
"f  c #64DED9",
"g  c #69DFDA",
"h  c #6EE0DB",
"j  c #76E2DD",
"k  c #77E2DD",
"l  c #77E2DE",
"z  c #75E1DD",
"x  c #72E1DC",
"c  c #78E2DD",
"v  c #78E2DE",
"b  c #79E2DE",
"n  c #79E3DE",
"m  c #7AE2DE",
"M  c #7AE3DE",
"N  c #7BE3DE",
"B  c #7BE3DF",
"V  c #7CE3DF",
"C  c #7DE3DF",
"Z  c #7EE3DF",
"A  c #7FE3DF",
"S  c #7EE4DF",
"D  c #7BE3DF",
"F  c #7FE3E0",
"G  c #7FE4E0",
"H  c #7FE4E0",
"J  c #80E3DF",
"K  c #80E4DF",
"L  c #81E4DF",
"P  c #80E4E0",
"I  c #81E4E0",
"U  c #82E4E0",
"Y  c #83E4E0",
"T  c #82E5E0",
"R  c #83E4E1",
"E  c #84E4E0",
"W  c #84E4E1",
"Q  c #84E5E1",
"!  c #85E5E1",
"~  c #86E5E1",
"^  c #87E5E1",
"/  c #85E6E1",
"(  c #87E6E2",
")  c #84E4E0",
"_  c #88E5E1",
"`  c #88E6E2",
"'  c #89E6E2",
"]  c #8AE6E2",
"[  c #8BE6E2",
"{  c #8BE7E3",
"}  c #8CE6E2",
"|  c #8CE6E3",
" . c #8DE6E3",
".. c #8CE7E3",
"X. c #8DE7E3",
"o. c #8EE7E3",
"O. c #8FE7E3",
"+. c #8EE7E4",
"@. c #8CE7E3",
"#. c #8EE8E4",
"$. c #8FE8E4",
"%. c #8FE8E4",
"&. c #90E7E3",
"*. c #90E7E4",
"=. c #90E8E3",
"-. c #90E8E4",
";. c #91E8E4",
":. c #92E8E4",
">. c #93E8E4",
",. c #93E8E5",
"<. c #94E8E4",
"1. c #95E9E4",
"2. c #95E8E5",
"3. c #94E9E5",
"4. c #95E9E5",
"5. c #96E8E5",
"6. c #96E9E5",
"7. c #97E9E5",
"8. c #94E9E5",
"9. c #98E9E5",
"0. c #98E9E6",
"q. c #99EAE6",
"w. c #9AEAE6",
"e. c #9BEAE6",
"r. c #9BEAE7",
"t. c #9CEAE6",
"y. c #9CEAE7",
"u. c #9DEAE7",
"i. c #9EEAE7",
"p. c #9EEBE7",
"a. c #9FEBE7",
"s. c #9BEAE6",
"d. c #9FEBE8",
"f. c #9FEBE8",
"g. c #A0EBE8",
"h. c #A1EBE8",
"j. c #A2EBE8",
"k. c #A4ECE9",
"l. c #A5ECE9",
"z. c #A6ECE9",
"x. c #A7ECEA",
"c. c #A7EDEA",
"v. c #A2EBE8",
"b. c #A8EDEA",
"n. c #A9EDEA",
"m. c #AAEDEA",
"M. c #ABEDEA",
"N. c #AAEDEA",
/* pixels */
". . . . . . . . . . . . . . . . . . . X + + + + @ @ @ @ + + + + + + + + + + + + @ # # # # # # # ; : : : > , , , , , , 2 - + + + ",
". . . . . . . . . . . . . . . . . . . X + + + + @ @ @ @ + + + + + + + + + + + + @ # # # # # # # ; : : : > , , , , , , , - + + + ",
". . . . . . . . . . . . . . . . . . . X + + + + @ @ @ @ @ @ + + + + + + + + + + @ # # # # # # # ; : : : > , , , , , , , - + + + ",
"o o o & 3 3 3 3 3 3 3 9 9 9 9 0 q q q r r r r i i i i i i i i i e e e e e e e e i p p p p p p p p p p p p p p p p p p p 6 + + + ",
"+ + + 1 g g g g g g g h x x x z Q Q Q Q { { { { Q Q Q Q Q Q Q Q T G G G C F G T T Q Q Q Q Q Q Q T C F F n n n n z x z z e + + + ",
"+ + + 1 g g g g g g g g h h h z T T T T Q Q Q Q T T T T T T T T C C C C C C C C T T T T T T T T C C C C n z z z z x x z e + + + ",
"+ + + 1 g f g g g g f g h h h z T T T T Q Q Q Q T T T T T T T T C C C C C C C C T T T T T T T T C C C C n n n n z x x z e + + + ",
"@ @ @ 6 n n n n n n n n S S S T { { { { { { { { { Q Q Q Q Q Q Q T T T T T T T Q Q Q Q Q Q Q Q Q C n n n z x x x g g g h w @ + + ",
"@ @ @ w $.......................>.>.>.>...{ { { ................{ Q Q Q Q Q { { { ......{ Q Q Q C n n n h g g g f a a a 7 @ @ + ",
"@ @ @ w ..{ ....................>.>.>.>...{ { ..................{ Q Q Q Q Q { { { ......{ Q Q Q C n n n x g g g f a a a 7 + @ + ",
"@ @ @ w ..{ ....................>.>.>.>.....{ ..................{ Q Q Q Q Q Q { { ......{ Q Q Q C n n n x g g g f a a a 7 + + + ",
"# # # w >.$.$.$.$.$.$...................$.$.$.>.4.4.4.4.>.>.>.>.........{ Q Q { Q Q Q Q Q Q Q Q C n n n n z z z x h h x w + + + ",
"# # # w >.>.>.>.>.>.>.$...........{ { ..>.>.>.>.e.e.e.e.4.4.4.4.>.>.>.>.{ Q Q Q T T T T T T T T C C C C C C C C C C C T e + + + ",
"# # # w >.>.>.>.>.>.>.$.........{ { { ..>.>.>.>.e.e.e.e.4.4.4.4.>.>.>.>.{ Q Q Q T T T T T T T T C C C C C C C C C C C G e + + + ",
"# # # w >.>.>.>.>.>.>.$.................>.>.>.>.e.e.e.e.4.4.4.4.>.>.>.>.{ Q Q Q T T T T T T T T C C C C C C C C C C C G e + + + ",
"# # # w 4.4.4.>.........$.$.$...{ { { ..>.4.4.4.4.4.4.4.4.>.>.>.>.>.>.>.......{ Q T T T T C C C C n n n n n n n n n n n e @ @ @ ",
"# # @ w e.4.4.>...{ { ..>.>.>...Q Q Q { 4.4.4.4.>.>.>.>.>.>.>.>.>.>.>.>.>.>.>.$.Q T T T C C C C n n n n z x x x x x x z y # # @ ",
"# # @ w e.4.4.>...{ { ..>.>.>...Q Q Q { 4.4.4.4.>.>.>.>.>.>.>.>.>.>.>.>.>.>.>.$.Q T T T C C C C n n n n z x x x x x x z y # # @ ",
"# # @ w e.4.4.>.......+.>.>.>...{ { Q { 4.4.4.4.>.>.>.>.>.>.>.>.>.>.>.>.>.>.>.$.Q T T T C C C C n n n n z x x x x x x z y # @ @ ",
"# # @ w e.e.e.>.......{ T T T S n n n K ........{ { { { ......................{ Q Q Q Q T T T T C C C C n z z z z z z n y @ # # ",
"# # @ w u.e.e.4.>.>.>.G g g g g g g g h T T T T T T T Q Q Q Q Q Q Q Q Q Q Q Q Q Q Q { { { { Q Q Q Q Q Q T C C C C C C G y @ @ @ ",
"# # @ w u.e.e.4.>.>.>.G g g g g g g g x T T T T T T T Q Q Q Q Q Q Q Q Q Q Q Q Q Q Q { { { { Q Q Q Q Q Q T C C C C C C G y @ @ @ ",
"# # @ w u.e.e.4.>.>.>.G g g g g g g g h T T T T T T T Q Q Q Q Q Q Q { { { { Q { Q Q Q Q Q Q Q Q { { Q Q T C C C C C C T y @ @ @ ",
"# # @ w e.e.e.>.......T x x x x x x x z C C C C T T T T Q Q Q Q { { Q { { { Q Q Q Q Q Q Q Q Q Q { { { { T C C C n n n n y @ @ @ ",
"# # @ w >.>.>...Q Q Q Q T T T T T T T C z x x z T T T T T T T T Q Q Q Q { { Q Q T T T T Q Q Q Q { { Q Q I C C C z h h x w @ @ @ ",
"# # @ w >.>.>...Q Q Q Q T T T T T T T C x x x z T T T T T T T T Q Q Q Q Q { Q { T T T T Q Q Q Q { { Q Q T C C C z h h h w @ @ @ ",
"# # @ w >.>.>...Q Q Q Q T T T T T T T C z x x z T T T T T T T T Q { Q Q Q Q { { T T T T Q { Q Q Q Q Q Q T C C C z h h x w @ @ @ ",
"# # @ w 4.>.4...{ { { Q T T T K C C C n x x x x n C C C C C C C C K K K K T T K C C C C Q Q Q Q Q Q Q Q C n C n x g g h w @ @ @ ",
"# # @ w u.e.e.>.......{ T T T n g g g g g g g g g g g g g g g g g g g g h h h h x z z z n C C C T T T T n x x z g a d f 7 + + + ",
"# # @ w u.e.e.>.......{ T T T n g g g g g g g g g g g g g g g g g g g g h h h h x x x x n C C C T T T T n x x x g a a f 7 + + + ",
"# # @ w u.e.e.>.......Q T T T n g g g g g g g g g g g g g g g g g g g g h h h h x x x x n C C C T T T T n x x z g a a f 7 + + + ",
"# # # w u.e.e.4.$.$.>.{ T T T C x x x x g g g g g g g g g g g g g g g g h h h h x x x x z n n n C C C C z h h h g a a a 7 + + + ",
"# # # w e.4.4.e.d.d.d.>.T T T { u.u.u.+.g g g g g g g g g g g g g g g g g g g g g g g g g g g g g g g g f p p a y 8 8 t < + + O ",
"# # # w e.4.4.e.g.g.g.>.T T T ..g.g.g.>.g g g g g g g g g g g g g g g g g g g g g g g g g g g g g g g g a p p p y 7 7 8 < + + O ",
"# # # w e.4.4.e.g.g.g.>.T T T ..g.g.g.>.g g g g g g g g g g g g g g g g g g g g g g g g g g g g g g g g a p p p y 7 7 7 < + + + ",
"# # # w e.4.4.u.g.g.g.>.T T T ..d.d.g.>.h h h h h h h h h h h h h h h h h h h h h h h h h h h h h h h h f a a a p t t t 1 + + + ",
"# # # t e.4.4.u.z.z.z.4.T T T { 4.e.e.4.>.>.>.=.........>.>.>.>.>.>.>.>.>.>.>.>.4.4.4.4.4.4.4.4.>.>.>.>.{ Q Q Q T n n n e @ @ @ ",
"# # # t e.4.4.u.z.z.z.4.T T T { 4.4.4.4.4.4.4.4.>.>.>.>.4.4.4.4.4.4.4.4.4.4.4.4.e.e.e.e.e.e.e.e.e.4.4.4.>.......{ T T Q i @ @ @ ",
"# # # w e.4.4.u.z.z.z.4.T T T { 4.4.4.4.4.4.4.4.>.>.>.>.4.4.4.4.4.4.4.4.4.4.4.4.e.e.e.e.e.e.e.e.e.4.4.4.>.......Q T T Q i @ @ @ ",
"# # # t e.4.4.u.z.z.z.4.Q Q Q { 4.4.4.4.4.4.4.4.>.>.>.>.4.4.4.4.4.4.4.4.4.4.4.4.e.e.e.e.e.e.e.e.e.4.4.4.>.{ ....Q T T T i @ @ @ ",
"# # # y z.g.g.z.n.n.n.z.g.g.g.g.g.g.g.g.u.u.u.d.g.g.g.g.g.g.g.g.d.u.u.u.u.u.u.u.u.e.e.e.u.d.d.d.u.e.e.e.&.{ { { n g g h w O O O ",
"# # # y z.z.z.n.n.n.n.n.n.n.n.n.z.z.z.z.g.g.g.g.z.z.z.z.z.z.z.z.g.g.g.g.g.g.g.g.u.e.e.e.u.g.g.g.u.e.e.e.&.Q Q { z f g g 7 O O O ",
"# # # y z.z.z.n.n.n.n.n.n.n.n.n.z.z.z.z.g.g.g.g.z.z.z.z.z.z.z.z.g.g.g.g.g.g.g.g.u.e.e.e.d.g.g.g.u.e.e.u.&.Q Q { z g g g 7 O O O ",
"# # # y z.z.z.n.n.n.n.n.n.n.n.n.z.z.z.z.g.g.g.g.z.z.z.z.z.z.z.z.g.g.g.g.g.d.g.d.u.e.e.e.u.u.u.u.e.4.4.4.{ C C J h a a s 3 o o o ",
"# # # y n.n.n.n.n.n.n.n.n.n.n.n.n.n.n.n.n.n.n.n.n.n.n.n.z.z.z.z.g.g.g.g.u.u.u.u.e.e.u.e...{ { { z g g g p t t t 7 5 5 5 = X X X ",
"# # # y M.n.n.n.n.n.n.n.n.n.n.n.n.n.n.n.n.n.n.n.n.n.n.n.z.z.z.z.g.g.g.g.u.e.e.e.e.e.u.e...Q Q Q h s a a y 7 7 7 5 4 4 4 * X X X ",
"% % # y M.n.n.n.n.n.n.n.n.n.n.n.n.n.n.n.n.n.n.n.n.n.n.n.z.z.z.z.g.g.g.g.u.e.e.e.e.e.e.e...Q Q Q h s s f y 7 7 7 6 4 4 4 * X X X ",
"% % # y M.n.n.n.n.n.n.n.n.n.n.n.n.n.n.n.n.n.n.n.n.n.n.n.z.z.z.z.g.d.d.d.e.e.e.e.e.e.e.e.{ Q Q Q g a a a y 7 7 7 5 2 4 4 * X X X ",
"% % # y M.n.n.z.g.g.g.g.g.g.g.k.z.z.z.z.n.n.n.n.n.n.n.n.g.g.g.g.e.e.e.e.>.$.$...T G G C g a a a 7 4 4 5 , : : : : ; ; ; $ X X X ",
"% % # y M.n.n.z.g.g.g.g.g.g.g.g.z.z.z.z.n.n.n.n.n.n.n.n.g.g.g.d.e.4.4.4.......{ n z n z a u u u 5 > , , : ; ; ; ; % % % @ X X X ",
"% # # y M.n.n.z.g.g.g.g.g.g.g.g.z.z.z.z.n.n.n.n.n.n.n.n.g.g.g.d.e.4.4.4.......{ C n n z a u p p 5 , , , : ; ; ; ; % % % @ X X X ",
"# # # y M.n.n.z.g.g.g.g.g.g.g.g.z.z.z.z.n.n.n.n.n.n.n.n.g.g.g.d.e.4.4.4...{ ..{ n z z z a u u u 5 , , , : ; ; ; ; % % ; @ X X X ",
"# # # y n.z.z.u.e.e.e.4.4.4.4.e.g.g.g.g.k.k.k.k.k.k.k.g.u.u.u.e.>.$.$...T C C n a p p p 7 6 6 6 4 , , , > : : : : : : : $ X X X ",
"# # # y z.z.z.u.4.4.4.4.>.>.>.4.g.g.g.g.g.g.g.g.g.g.g.d.e.e.e.e.......{ C z n z y t t t 6 5 5 5 4 , , , > : : : : : : > $ X X X ",
"# # # y z.z.z.u.4.4.4.4.>.>.>.4.g.g.g.g.g.g.g.g.g.g.g.d.u.e.e.e.$.....{ C n n z y t t t 6 5 5 5 4 , , , > : : : : : : : $ X X X ",
"# # # y z.z.z.u.4.4.4.4.>.>.>.4.g.g.g.g.g.g.g.g.g.g.g.d.u.e.e.e.$.....{ C n n z p t t t 6 5 5 5 4 , , , > : : : : : : : $ X X X ",
"# # # t u.u.u.4.$.>.>.{ Q Q Q Q ........*.*.*.&.........{ { { Q T G G G z x x h t 7 7 7 2 , , , > : : : $ % % % % $ $ % + . . . ",
"# # # t 4.4.4.>.......Q C C C C T T T T Q Q Q Q T T T T C C C C n n n z x h h g 7 6 6 6 , : : : % # # # # @ @ @ @ @ @ @ O       ",
"# # # t e.4.4.>.......Q C C C C T T T T Q Q Q Q T T T T C C C C n n n n x h h g 7 6 6 6 , : : : % # # # # @ @ @ @ @ @ @ O       ",
"# # # t e.e.e.>...+.$.Q C C C T T Q T Q { { { { Q T Q T G C C C n n n n x x x g 7 6 6 6 , : : : % # # # # @ @ @ @ @ @ @ O       ",
"# # @ < w w w w w w w 7 7 7 7 7 7 7 7 7 7 7 7 7 7 7 7 7 7 7 7 7 7 6 6 6 6 6 6 6 , > > > : ; ; ; # # # # @ @ @ @ @ + + @ + o o X ",
"@ @ @ @ @ @ @ @ @ @ @ @ @ @ @ @ @ @ @ @ @ @ @ @ # # # # @ @ @ @ @ @ @ @ # ; ; ; # # # # # # # # # # # # @ @ @ @ @ + + + + + + + ",
"@ @ @ @ @ @ @ @ @ @ @ @ @ @ @ @ @ @ @ @ @ @ @ @ # # # # @ @ @ @ @ @ @ @ % ; ; ; # # # # # # # # # # # # @ @ @ @ @ + + + + + + + ",
"@ @ @ @ @ @ @ @ @ @ @ @ @ @ @ @ @ @ @ @ @ @ @ @ # # # # @ @ @ @ @ @ @ @ % ; ; ; # # # # # # # # # # # # @ @ @ @ @ + + + + + + + "
};
