/* XPM */
static char *_b099aec1f174bdd8b45841cfc7ce627AqMV7EueTN4yKR4o[] = {
/* columns rows colors chars-per-pixel */
"64 64 176 2 ",
"   c #674B36",
".  c #694C37",
"X  c #6C4E3B",
"o  c #704F3E",
"O  c #695237",
"+  c #6C523A",
"@  c #6A5839",
"#  c #72523E",
"$  c #6E5343",
"%  c #755541",
"&  c #795742",
"*  c #755846",
"=  c #7A5842",
"-  c #87634D",
";  c #89654F",
":  c #8B6750",
">  c #8E6851",
",  c #976F52",
"<  c #986F52",
"1  c #9D7355",
"2  c #9B7856",
"3  c #9C765A",
"4  c #A17656",
"5  c #A47957",
"6  c #A27658",
"7  c #A47959",
"8  c #708E45",
"9  c #679742",
"0  c #6C9545",
"q  c #679C42",
"w  c #6C9B45",
"e  c #6D9648",
"r  c #6D9B49",
"t  c #719646",
"y  c #729B46",
"u  c #719649",
"i  c #729D49",
"p  c #799D4E",
"a  c #6EA246",
"s  c #6FA649",
"d  c #75A347",
"f  c #71A14A",
"g  c #70A04A",
"h  c #73A14A",
"j  c #71A24A",
"k  c #72A348",
"l  c #74A04B",
"z  c #76A04B",
"x  c #74A24B",
"c  c #77A24A",
"v  c #70A449",
"b  c #70A549",
"n  c #71A549",
"m  c #72A448",
"M  c #71A649",
"N  c #71A749",
"B  c #72A749",
"V  c #71A74A",
"C  c #72A74A",
"Z  c #76A548",
"A  c #77A548",
"S  c #75A748",
"D  c #75A749",
"F  c #76A648",
"G  c #77A648",
"H  c #74A54B",
"J  c #75A54B",
"K  c #75A64B",
"L  c #75A74B",
"P  c #76A64B",
"I  c #73A24C",
"U  c #74A04C",
"Y  c #74A14C",
"T  c #74A54D",
"R  c #76A54D",
"E  c #74A64C",
"W  c #75A74C",
"Q  c #75A64D",
"!  c #75A74D",
"~  c #76A74C",
"^  c #77A74C",
"/  c #75A74E",
"(  c #74A34B",
")  c #78A34B",
"_  c #79A34B",
"`  c #79A44B",
"'  c #78A54B",
"]  c #79A54B",
"[  c #78A44B",
"{  c #78A74A",
"}  c #79A64B",
"|  c #79A54D",
" . c #78A54C",
".. c #79A64C",
"X. c #79A74C",
"o. c #7AA74C",
"O. c #7AA64D",
"+. c #7BA74D",
"@. c #72A849",
"#. c #73A849",
"$. c #73A949",
"%. c #73AA49",
"&. c #73AB49",
"*. c #71A84A",
"=. c #72A84A",
"-. c #73AA4A",
";. c #73AB4A",
":. c #76A848",
">. c #76A849",
",. c #76A949",
"<. c #77A84B",
"1. c #74AD4B",
"2. c #74AE4A",
"3. c #74AE4B",
"4. c #75AE4B",
"5. c #75AF4B",
"6. c #75A84C",
"7. c #75A84D",
"8. c #76A84C",
"9. c #77A84C",
"0. c #75AA4D",
"q. c #75A94E",
"w. c #75A84E",
"e. c #77A94E",
"r. c #77AA4E",
"t. c #77AA4F",
"y. c #74AF4C",
"u. c #74AA4A",
"i. c #79A84A",
"p. c #79A94A",
"a. c #78A84B",
"s. c #79A94B",
"d. c #79AB4A",
"f. c #78AB4B",
"g. c #79AB4B",
"h. c #7AAC49",
"j. c #78AC4A",
"k. c #79AD4A",
"l. c #78AC4B",
"z. c #79AC4B",
"x. c #79AD4B",
"c. c #7AAD4B",
"v. c #7AA84C",
"b. c #78AA4C",
"n. c #7BA84F",
"m. c #7BA94F",
"M. c #7AA94F",
"N. c #78AB4F",
"B. c #78AB4E",
"V. c #7BAA4F",
"C. c #7CA94F",
"Z. c #78AD4C",
"A. c #78AE4C",
"S. c #79AE4D",
"D. c #78AF4D",
"F. c #79AF4D",
"G. c #74B04C",
"H. c #75B14B",
"J. c #79B04D",
"K. c #79B24E",
"L. c #7CAA50",
"P. c #C29067",
"I. c #C5936A",
"U. c #CA966C",
"Y. c #CE996E",
"T. c #D09B6F",
"R. c #C79870",
"E. c #CD9A71",
"W. c #D19C70",
"Q. c #859394",
"!. c #899595",
"~. c #8B9897",
"^. c #85969A",
"/. c #87989B",
"(. c #8A9B9D",
"). c #849BA1",
/* pixels */
"w w w w e e e e f.l.l.l.e e e e f.f.f.f.y.G.G.y.a a a a y u t y Z Z ! ! r r r r E ! ! ! u.u.u.Z w w w w 0 0 0 e ! 7.7.! e w w w ",
"w w w w e e e e f.l.l.f.e e e e f.f.f.f.y.G.G.y.a a a a y t t y Z Z ! ! r r r r ! ! ! ! Z Z u.Z w w w w 0 0 0 e ! 7.7.! e w w w ",
"w w w w e e e e f.l.l.l.e e e e { f.f.f.G.G.G.y.a a a a y t t y Z Z Z Z r r r r ! 7.7.7.Z Z u.Z w w w w 0 0 0 e ! 7.7.! e w w w ",
"w w w w e e e e f.l.l.f.e e e e { f.f.f.y.G.G.y.a a a a y t t y Z Z Z Z r r r r l I I l Z Z Z F w w w w e e e r Z 7.! Z r e e e ",
"F F F F e e e e ! 7.7.7.( ( ( ( B.B.B.B.&.&.&.&.s s s s e e e e ) ) ) { D.D.D.u.@ O O @ 9 w w w { ..{ ..B.B.B.B.h h h h ........",
"F F F G e e e e E ! ! 7.&.&.&.&.B.B.B.B.&.&.&.&.s s s s e e e e ) ) ) { D.D.K.f.O . . O 9 w 9 w { +.....L.L.L.B.h h h h ........",
"F F G G y e e e 7.7.7.7.&.&.&.&.B.B.B.B.&.&.&.&.s s s s w e e e ) ) { { K.K.K.B.@ . . O 9 w 9 w { B.....C.L.L.B.h h h h ........",
"Z F F F y e e y h I I h ( ( ( &.7.7.7.7.h h h h s s s s w e e e ) ) ) { f.f.B.l O . . O 9 w w w { ..{ ..B.B.B.B.h h h h ........",
"q q q q ! ! ! l @ O O @ w a a w w w w e @ O O @ y ( h ( h h h i y y y t @ O @ O . . . O 0 r r r r w w w ( ( ( ( &.&.&.&.7.! ! ..",
"q q q q ! ! 7.l O . . O w a a w w e w 0 O . . O y ( h h i i h h y t y t . . . . . . . O e r r r e e e e ( ( ( s &.H.H.1.7.! ! ! ",
"q q q q ! ! 7.l O . . O w a w q w e w 0 O . . O y ( ( ( i i y i y y y t O . . . . . . O e r r r w w w w ( ( ( ( H.H.H.H.7.! u.Z ",
"q q q q ! ! ! l O . . O w a w w w y w 0 O . . O y y y y h h h i t t t 8 O . . . X + X + 0 e e e e e e e w h i k u.u.&.&.7.7.u.Z ",
"&.&.&.&.h h I y O . . O y k y k F F G y + X X X O O O @ Z u.u.Z @ O O O . . . X < 1 1 < + O O O O O O O O O O O @ @ O @ l u.Z u.",
"&.&.&.&.h h h y O . . O y k y y G G G y + X X X . . . O Z 1.1.Z O . . . . . . + 1 1 4 1 X . . . . . . . . . . . . . . O l u.Z u.",
"&.&.&.&.h h ( i O     O y k k k F F :.d + X X X . . . O Z y.y.Z O . . . . .   X 1 1 1 1 .       . . . . . . . .       O l u.u.u.",
"&.&.&.&.i y i u # # # # t y y y y y y y # o # # + + X + i Z Z i + X + + + + X # 1 4 1 1 # + # + . . . . X + X + # # # # y l d l ",
"r r r e @ O O # P.U.U.P.# O O O O O O + < 1 1 1 1 1 1 < + O O + , 1 1 1 1 1 1 1 1 1 1 1 I.U.U.P.# . X # < 1 1 1 I.U.U.P.# O O O ",
"r r r e O .   # U.W.W.U.#   . . . . . X 1 4 4 4 1 1 1 1 X . . X 1 4 4 4 1 1 1 1 1 1 1 4 Y.T.W.U.% X X # 1 4 1 4 Y.T.W.U.#   . . ",
"r r r e O .   + U.T.W.U.+   . . . . . + 1 1 1 1 1 1 1 1 X   . . 1 1 1 1 1 4 4 1 1 1 1 4 U.E.T.U.# . X # 1 1 1 4 U.Y.T.U.#   . . ",
"y y r e + X . # I.Y.Y.I.# + # + . . . + 1 4 4 4 1 1 1 1 # X X + 1 6 4 4 1 1 1 1 4 6 4 7 Y.Y.T.U.% X # # 1 6 4 5 Y.Y.T.U.#   . . ",
"I I E p 2 1 1 1 4 4 4 7 I.U.U.P.# X . # I.Y.Y.I.> ; ; : 1 1 1 1 U.Y.Y.I.% + + % I.Y.U.Y.Y.Y.W.U.1 1 1 1 U.Y.U.Y.Y.Y.T.U.#   . . ",
"I I ! I 2 4 4 1 1 1 1 4 Y.T.W.U.% X X % U.T.T.U.> - ; ; 1 1 1 6 Y.W.W.U.# . . # U.T.Y.Y.Y.Y.Y.U.4 1 1 6 Y.T.T.T.Y.Y.T.U.# . . . ",
"E E E I 1 1 1 1 4 1 1 6 Y.T.T.U.# . . # U.W.T.U.> - ; ; 1 1 1 4 Y.W.W.U.# . . # U.W.T.T.T.T.T.Y.4 1 1 4 U.T.Y.Y.W.T.W.U.+   .   ",
"I I I p 2 1 1 1 1 1 1 1 U.U.Y.I.= # # = U.W.T.U.> ; ; ; 1 1 1 4 U.U.Y.I.% + + % P.U.U.U.U.U.U.I.5 4 4 7 Y.W.Y.Y.U.U.U.P.# + # # ",
"1 2 1 2 1 1 4 1 # # # # 1 4 4 7 I.U.U.U.Y.E.T.U.4 1 1 1 1 1 1 1 > > > > 1 1 1 < % # # # # % # = I.Y.U.Y.Y.Y.T.U.= # # & P.U.U.U.",
"1 1 1 1 1 1 4 1 # X X # 1 1 1 4 Y.W.T.T.Y.Y.T.U.4 1 1 1 1 1 1 1 ; - - ; 1 4 4 1 + . X . . X X # U.T.Y.W.Y.Y.T.U.# . . # U.W.W.W.",
"1 1 1 1 4 4 4 1 # X . # 1 4 1 4 Y.W.Y.Y.Y.Y.T.Y.6 1 4 1 1 1 1 1 ; ; ; ; 1 1 1 1 # X X X X X . # U.T.Y.Y.T.W.W.U.# . . # U.W.Y.Y.",
"4 4 4 4 1 1 1 < # # # # 1 1 1 4 U.Y.U.Y.Y.Y.T.U.1 1 1 1 1 1 1 1 ; - - ; 3 3 3 3 % + # # # # X % U.T.Y.Y.Y.U.Y.I.% + + % I.Y.U.U.",
"U.U.Y.I.% X # # < 1 1 1 ; ; ; : 1 6 4 7 Y.Y.T.U.% X # % 1 1 4 1 # X X % Q././.!.3 1 1 1 1 1 1 1 U.T.T.Y.7 4 6 4 1 1 1 1 4 4 6 4 ",
"T.E.W.U.# . X # 1 4 1 1 ; ; ; ; 1 1 1 4 U.Y.T.U.# . X # 1 4 4 1 # X X $ ^.).)./.3 4 4 4 4 4 1 6 U.Y.Y.U.4 1 1 1 4 1 4 4 1 1 1 1 ",
"Y.Y.T.U.# . X # 1 1 1 1 ; ; ; ; 1 1 1 6 Y.W.W.U.# . . X 1 1 1 1 X . . $ ^.).).^.3 1 1 1 1 4 1 6 Y.W.W.Y.4 1 1 1 1 1 1 1 4 1 1 1 ",
"Y.Y.T.U.% X # # 1 4 6 1 : ; ; : 1 1 1 4 U.Y.Y.I.= # # % 1 1 1 1 % # # * !.(.(.~.6 4 6 4 1 1 1 4 I.U.U.I.5 4 6 4 1 1 1 1 1 1 1 1 ",
"Y.Y.T.U.1 1 1 1 U.Y.Y.U.4 1 1 1 1 1 1 1 4 4 4 7 I.U.U.I.4 1 1 4 I.U.U.U.E.E.E.E.Y.U.Y.I.> ; : ; % % # = I.Y.Y.U.4 1 1 1 # # # # ",
"Y.Y.T.U.6 1 1 4 Y.T.T.Y.4 1 1 1 1 1 1 1 1 1 1 4 Y.T.T.Y.4 1 1 4 Y.T.T.W.T.T.T.T.T.Y.T.U.> - ; - X . X % U.W.W.Y.6 1 1 1 # . X X ",
"T.T.T.Y.4 1 1 4 Y.T.T.Y.6 1 4 4 1 1 1 1 1 4 1 4 Y.T.T.Y.6 1 1 6 Y.T.Y.Y.Y.T.Y.T.W.W.T.U.> - ; - + X . % U.W.W.Y.4 1 1 1 X . X X ",
"U.U.U.I.4 1 1 4 U.Y.Y.U.1 1 1 1 1 1 1 1 1 1 1 4 U.Y.Y.U.1 1 1 1 U.Y.U.U.U.U.U.Y.U.U.U.I.> ; ; ; + X . # P.U.U.I.7 4 6 1 % # # % ",
"# # # % 1 4 1 1 6 4 6 1 # # # # 1 1 1 1 ; ; ; : 4 4 6 1 % # # # 1 6 4 6 6 6 6 4 > > > > 1 1 1 1 # X X X # % % = I.Y.U.U.U.U.U.U.",
"X X . + 1 1 1 1 1 1 1 1 # X X # 1 1 1 1 ; ; ; ; 1 1 1 1 # X X # 1 1 1 1 1 1 1 1 ; - - ; 1 1 4 1 # X X X . X X # U.T.Y.T.T.T.T.T.",
"X X X # 1 1 1 1 1 1 4 1 X . . X 1 4 1 1 ; ; ; ; 1 1 1 1 X . . + 1 4 4 4 1 1 1 1 ; ; ; ; 1 1 1 1 # . X X X X X % U.W.Y.T.T.T.T.T.",
"# # + # 1 4 1 1 3 3 3 3 % # # % < 1 1 1 ; - - ; 1 1 1 1 % # # % < 1 1 1 1 1 1 1 ; ; ; : 1 1 1 1 # # # # X X . # I.Y.U.U.U.U.U.U.",
"1 1 1 1 1 1 1 3 !./.^.!.I.U.U.P.% X # # + + X % 1 4 1 4 I.U.U.P.% + # # 1 1 1 1 1 1 1 1 1 1 1 1 1 1 1 < # X X # 1 4 4 1 % # % # ",
"1 4 1 4 1 1 1 3 /.).).(.E.T.W.U.# . X X X X X # 1 1 1 4 Y.T.W.U.# . X # 1 1 1 1 4 4 4 1 1 1 1 1 1 1 4 1 # X X # 1 1 1 1 X . X . ",
"1 1 1 1 1 1 1 3 /.).).(.E.Y.T.U.# . X X X X X # 1 1 1 4 U.Y.T.U.# . X + 1 1 1 1 1 1 1 1 1 1 1 1 1 1 1 1 X . . X 1 4 4 1 # X X X ",
"4 4 4 4 1 1 1 3 !./.^.~.E.Y.T.U.% X # # # # # # 1 4 1 4 Y.Y.T.U.% + # # 1 4 4 4 4 4 4 6 6 4 4 4 4 6 4 1 % # # % < 1 1 < % X + + ",
"U.U.Y.U.4 1 1 1 3 3 3 7 Y.T.T.U.1 1 1 1 1 1 1 1 1 1 1 4 U.T.T.U.1 1 1 1 U.Y.U.U.U.Y.Y.Y.Y.Y.U.U.U.Y.U.U.U.U.U.P.% X # # - - - - ",
"T.T.T.Y.4 1 1 1 1 1 1 4 U.T.W.U.4 1 1 4 1 1 4 4 1 1 1 6 U.T.W.Y.4 1 1 6 Y.T.E.T.T.W.T.T.T.T.T.T.E.Y.Y.Y.T.T.W.U.# . X X ; : ; ; ",
"Y.Y.T.U.6 1 1 1 1 1 1 4 Y.Y.T.Y.4 1 1 1 1 1 1 1 1 1 1 4 U.T.T.U.4 1 1 6 Y.T.Y.T.Y.Y.Y.Y.Y.Y.Y.Y.T.T.W.T.Y.Y.W.U.# . . X - ; - - ",
"Y.Y.T.U.1 1 1 1 1 1 1 4 Y.T.Y.U.4 1 1 1 4 4 4 6 4 4 4 7 Y.Y.T.U.4 1 1 4 U.Y.U.Y.Y.Y.Y.Y.Y.Y.E.Y.U.U.U.U.Y.Y.W.U.= # # % : > > > ",
"E.Y.W.U.> ; ; ; 1 1 1 4 U.W.Y.Y.4 1 1 4 U.Y.U.Y.U.U.U.Y.Y.Y.T.Y.6 1 1 1 4 4 4 7 Y.Y.Y.Y.Y.Y.W.U.= # # = U.T.Y.Y.U.U.U.U.U.U.U.U.",
"Y.Y.T.U.> - ; ; 1 1 1 6 U.T.T.U.4 1 1 4 Y.T.Y.Y.W.T.T.T.Y.Y.Y.U.6 1 1 1 1 1 1 4 U.W.Y.Y.Y.Y.T.U.# . . # U.T.Y.Y.T.T.T.T.T.T.T.T.",
"T.T.T.U.> ; ; ; 1 1 1 4 U.T.Y.U.4 1 1 6 Y.T.T.T.T.T.W.T.W.T.W.Y.4 1 1 1 1 1 1 4 Y.W.T.T.T.T.W.U.% X X % U.T.T.T.T.T.T.T.T.T.Y.Y.",
"U.U.U.I.> - ; ; 1 1 1 4 U.W.T.Y.4 1 1 4 I.U.U.U.U.Y.Y.U.U.U.U.I.7 4 4 4 1 1 1 4 I.U.U.U.U.U.U.P.# X X # I.Y.U.U.U.U.U.U.U.Y.Y.U.",
"> > > > ; ; ; ; 1 1 1 4 Y.T.T.Y.4 1 1 1 > > > > 4 6 6 1 % # # = I.Y.Y.U.6 1 4 1 % # # # % # # # X X X # 1 4 4 4 > > > > 1 4 4 6 ",
"; ; ; ; ; ; ; ; 1 1 1 4 U.Y.Y.U.4 1 1 1 ; - ; ; 1 1 1 1 X . . # U.W.T.Y.6 1 4 1 + . X X X . . . X X X # 1 1 1 1 ; - - ; 1 1 1 1 ",
"; ; ; ; ; ; ; ; 1 1 1 4 Y.T.T.Y.4 1 4 1 ; - - ; 1 1 4 1 # X . # U.W.Y.U.6 1 1 1 + X X X X X X X X X . + 1 4 1 1 : ; ; ; 1 4 1 1 ",
"> > > > - - - ; 1 1 1 4 I.U.U.I.4 1 1 1 > > > > 1 1 1 < # # X % U.T.Y.U.6 1 1 1 % % % % X X X X # # # # 1 4 1 1 ; - - ; 1 1 1 1 ",
"U.U.Y.I.% X X # ; ; ; ; > > > > 1 1 1 4 I.U.U.I.% + # # < 1 1 1 U.T.T.Y.4 1 1 4 I.U.U.P.# . X # < 1 1 1 1 1 4 1 # X X # 1 1 1 1 ",
"T.Y.W.U.% . X X - ; ; ; - - - ; 1 1 1 4 Y.T.T.U.# . X # 1 4 1 6 U.Y.Y.U.4 1 1 6 Y.W.W.U.% X X # 1 3 1 4 1 1 1 1 # X X # 1 4 1 1 ",
"T.Y.T.U.% . X # - ; ; ; ; ; ; ; 1 4 1 6 Y.T.T.U.# . X # 1 1 1 6 Y.T.T.Y.4 1 1 6 U.T.T.U.# X X # 1 4 1 1 1 1 1 1 # X X # 1 4 4 1 ",
"U.U.Y.I.% X X # - ; ; ; ; ; ; ; 1 4 1 4 U.Y.Y.I.% X # # 1 1 1 4 U.Y.Y.U.4 1 1 6 R.E.E.I.% X X # < 1 1 1 4 4 4 1 # # + # 1 4 4 1 ",
"> > > ; + X X # - ; ; ; 1 1 1 1 1 1 1 1 4 4 6 4 1 1 1 1 1 1 1 1 4 4 4 4 1 1 1 3 ~.(.(.!.$ X X X # # X % I.Y.Y.U.1 1 1 1 1 1 1 1 ",
"- - ; - X X X + - ; ; ; 1 1 1 1 1 1 1 1 1 1 1 1 1 4 1 4 1 1 1 1 1 1 1 1 1 1 1 3 ^.).).^.$ X X X X X . # U.W.T.Y.4 1 1 1 1 1 1 1 ",
"; ; ; - + X X + - ; ; ; 1 1 1 1 1 1 1 1 1 1 1 1 1 1 1 1 1 1 1 1 1 1 1 1 1 1 1 3 ^.).).^.$ X X X X X X # U.T.E.U.4 1 1 1 1 1 1 1 ",
"; ; ; - + X X + - ; ; ; 1 1 1 1 1 1 1 1 1 1 1 1 1 1 1 1 1 1 1 1 1 1 1 1 1 1 1 3 ^.).).^.$ X X X X X . # U.T.Y.U.4 1 1 1 1 1 1 1 "
};
