/* XPM */
static char *_2f101260f514ee894f98bbabbe0e54fdjZauF07P4twWgxT[] = {
/* columns rows colors chars-per-pixel */
"64 64 142 2 ",
"   c #4D4D4D",
".  c #50504F",
"X  c #4F4F50",
"o  c #4F5050",
"O  c #545454",
"+  c #575758",
"@  c #575858",
"#  c #5B5B5B",
"$  c #5E5F60",
"%  c #5F6061",
"&  c #636363",
"*  c #676768",
"=  c #676869",
"-  c #6A6B6C",
";  c #6E6F70",
":  c #6F7072",
">  c #737375",
",  c #767778",
"<  c #77787A",
"1  c #7B7B7C",
"2  c #7F7F81",
"3  c #7F8082",
"4  c #818283",
"5  c gray51",
"6  c #828283",
"7  c #818182",
"8  c #818284",
"9  c #828284",
"0  c #838384",
"q  c #838385",
"w  c #838486",
"e  c #848484",
"r  c #848485",
"t  c gray52",
"y  c #848486",
"u  c #848586",
"i  c #858586",
"p  c #848587",
"a  c #858587",
"s  c #868687",
"d  c #838385",
"f  c #868688",
"g  c #878788",
"h  c #878789",
"j  c #878788",
"k  c #888888",
"l  c #888889",
"z  c #88888A",
"x  c #88898A",
"c  c #89898A",
"v  c #89898B",
"b  c gray54",
"n  c #8A8A8B",
"m  c #8B8B8B",
"M  c #8A8A8C",
"N  c #8B8B8C",
"B  c #8B8B8D",
"V  c gray55",
"C  c #8C8C8D",
"Z  c #8D8D8D",
"A  c #8C8C8E",
"S  c #8D8D8E",
"D  c #8D8D8F",
"F  c #8B8B8C",
"G  c #8E8E90",
"H  c #8F8F90",
"J  c #8F8F91",
"K  c #8F8F90",
"L  c #8F9091",
"P  c #909090",
"I  c #909091",
"U  c gray57",
"Y  c #919192",
"T  c #919193",
"R  c #929193",
"E  c #929292",
"W  c #939393",
"Q  c #939394",
"!  c #939395",
"~  c #949495",
"^  c #959595",
"/  c #959596",
"(  c #969697",
")  c #979797",
"_  c #939394",
"`  c #969698",
"'  c #979798",
"]  c #979798",
"[  c #989799",
"{  c #989899",
"}  c gray60",
"|  c #99999A",
" . c #9A9A9B",
".. c #9B9B9C",
"X. c gray61",
"o. c #9C9C9D",
"O. c #9D9D9E",
"+. c #9E9E9F",
"@. c #9B9B9B",
"#. c #9F9FA0",
"$. c #9F9FA0",
"%. c #A0A0A0",
"&. c #A0A0A1",
"*. c #A2A2A2",
"=. c gray64",
"-. c #A3A3A4",
";. c #A4A4A4",
":. c #A4A4A5",
">. c #A5A5A5",
",. c #A5A5A6",
"<. c gray65",
"1. c #A6A6A7",
"2. c #A7A7A7",
"3. c #A4A4A4",
"4. c #A7A7A8",
"5. c #A7A7A8",
"6. c gray66",
"7. c #A9A9A9",
"8. c #AAAAAB",
"9. c gray67",
"0. c gray68",
"q. c #AEAEAD",
"w. c #ADADAE",
"e. c #AEAEAE",
"r. c #ABABAC",
"t. c #AFAFB0",
"y. c #B0B0B1",
"u. c #B1B1B2",
"i. c #B2B2B2",
"p. c gray70",
"a. c #B3B3B4",
"s. c #B4B4B4",
"d. c gray71",
"f. c #B5B5B6",
"g. c #B6B6B6",
"h. c #B6B6B7",
"j. c #B7B7B7",
"k. c #B4B4B4",
"l. c #B7B7B8",
"z. c #B7B7B8",
"x. c gray72",
"c. c #BABABA",
/* pixels */
"> U p.a.U = O 7 A f U > # O O & , H U s ; # > U p.a.U = O 2 A f U > # O O & > H U s ; # - H p.g.U = O 1 A f U > # O O & > H U z ",
"*.p.' ' { z # , s s w s , #   > Q s s 1 - # ( g.{ ' { z # , s s w s < #   > Q s s 1 - # ( g.{ ' { N # > s s s s < #   - Q s w 1 ",
"N { z z U z # - 1 9 , 2 2 - O - s > > = O O 9 { z z U A # - 1 9 , 2 2 - O = s > > = O O 7 { z z U A # - 1 9 , 2 2 - O = s , > - ",
"s N s 1 s 7 O # = < > , < : # # & # # + O - 9 N s 1 s 7 O @ = < > , < : # # & # # @ O - 9 N s 1 s 9 O + = < > , < : # # & # # # ",
"7 7 w > > -     + = = = = = # & - & O O # 7 9 7 s > > -     O = = = = = # & > & O O # 7 9 7 s > > -     O = = = = = # & > & O O ",
", , 9 > $     O O # O . O # O A g.( = # # 1 < , 9 > $     O O # O . O + O z l.( - # # 1 < , 9 > %     O O # O   O O O z x.' - # ",
"- > > > & O O U w.6.A & O O O 1 X.N N > O & - > > > & O O U w.6.A = O O O 1 X.N N > O $ - > > > & O O U w.6.A = O O O < X.N N 1 ",
"# $ $ $ # & z 1.p.w...s > > # < Q 1 N 9 = O # $ $ $ # & z 1.p.w.X.s > > # > Q 1 N s - O # $ $ $ # & z 1.p.w.X.s > > # > Q 1 z f ",
"        # > g.#.Q ( { ( ' ( & > H , 1 7 , O         # > g.*.Q ( { ( ' ( & > H , 1 7 , O         O > g.*.Q ( [ ( ' ( & > L , 1 7 ",
"O     O > ( { N s z ( A N Q & - s 9 , = # # O     O > ( { A s z ( A N Q & - s 9 < = # # O     O > ( { A s z ( A N ( & - s 9 < - ",
"X.z O O < ' z 1 1 s 1 9 z f & # & , > = # 7 { A O O < ' N 1 1 s 1 9 z z & # & > > = # 7 { A O O , ' N 1 1 s 1 7 z z & # & > > - ",
"w.1.7 # > z s , > 1 > > > > # O O & & # # U 6.1.7 # ; z s , > 1 > > > > # O O & & # # U 6.1.7 # - z s , > 1 > > > > # O O & & $ ",
"( 1.g.= & : 1 > > : ; $ O # & & #     O & H ' -.g.= & ; 1 > > > ; % O # & & #     O & H ' *.g.- % ; 1 > > > ; & O O & & # .   O ",
"Q { ' & O O O = > ; # # O # 1.1.s #   = U z U { { & O X O = > ; # # O # 1.1.s #   & U z U { { & O O O = > ; # # O # 1.4.s #   # ",
"N A N s = O   O # @ O 7 X.X.1.*.N # O = A f z A N s = O   O # # X 1 X.X.1.*.A # O = A f z A N s = O   O # #   1 X.X.1.*.A # O & ",
"1 7 f U < #         & { x.g.{ U s # O & > > 1 7 f U < #         & ( x.g.{ U f # O & > > 1 7 s U < #         & ( x.g.{ U z # O & ",
"= > 9 s 1 =       O z ( ' ( z s 1 # O # & # & > 9 s 1 =       O z ( ' ( z s 1 # O # & # & > 9 s 1 - X     O z ( ' ( z s 1 # O # ",
"# & > 9 1 - O     O & < z z f 1 ; #   > 1.& # & > 9 1 - O     O & < z z f 1 ; #   > 6.& # & > 9 1 - O     O $ < z z f 2 ; #   = ",
"# # & = & & # O - A # > f s 1 - # O 1 X.1.< & # & = = & # O - A # > f s 1 - # O 1 X.1.< & # & = = & # O = A # ; f s 1 - # O < { ",
"& O O & # O O & z w.# = 1 2 > # O = 1.w.U f = O O & # O O & z w.# & 1 2 > # O = 1.w.U z = O O $ # O O & f w.# & 1 2 > # O = *.p.",
"& # # 7 - O # s { H +   # : : # & g.1.U s 9 = # # 2 ; O # s { U #   @ : > # & g.1.U s 9 = O # 2 > O # 7 { U #   + ; > # & g.1.Q ",
"O > 6.g.s O O s Q z z &   # # O & X.X.N > & # - 6.g.s O O s ( z z &   # # + & X.X.N > & # - 6.g.z O O 7 ( z z &   # # @ & X.X.H ",
"1 ( p.p.U - O 2 A f H , & O O & 1 A U 9 - # > ( p.p.U - O 1 A f H < & O O & 1 A U s ; # > ( t.p.( - O 1 A f H < & O O & 1 A H f ",
"*.p.( ( ' N # > 9 s 9 s < #   > Q 9 9 < = # ( p.( ( ( V # > 9 s 9 s 1 #   > Q 9 7 < = # ( a.( ( ' A # > 9 s 9 s 1 #   - Q 9 7 1 ",
"z ( f f U z # = 1 9 > 2 2 - O = 9 > > & O O 7 ( f f U N # = 1 9 > 2 2 - O = 9 > > & O O 7 ( f f H A # = < 9 > 1 7 ; O = 9 > > = ",
"s z s < 9 2 O O & , > > , : # # & O O O # > s z s < 9 7 O O & , > > , : # # & O O O # > 9 z s < 7 7 O O & , > > , > # # & O O O ",
"2 2 w > : =     O & & & & & # - 1 = O O # 7 7 2 s > : =     O & & & & & # - 1 = O O # 7 7 2 s > : =     O & & & & & # = 1 = O O ",
"> , 7 > #     O # & O O O O O A l.' - # # 1 , , 7 > $     O # & O O O O O z x.' ; # # 1 , , 7 > $     O # & + O O O O z x.{ > # ",
"- > > > & O # X.x.p.( = O O O 1 { z H < O # = > > > & O # { x.p.( - O O O < { z H < + # = > > > & O O { x.p.( - O O O < { z A 7 ",
"O # # # O & { 1.6.4.{ z 7 1 # < Q 1 f s > O O # # # O & { 1.6.4.X.z 7 1 # , Q 1 f s > O O # # # O & ( 1.6.4...z 7 1 # > Q 1 f f ",
"        # 1 p.X.U Q ' ( ( ( & > A < 1 1 > O         # < p.X.U U ' ( ( ( & > A < 1 1 > O         # < p.X.U Q ' ( ( ( & > H 1 1 1 ",
"O O   O < { ' z s h _ N N U & - 9 9 , = # # # O   O , { ' z s f Q N N U & - 9 9 , = # # # O   O > { ' z s f Q A N Q & = 9 9 , = ",
"6.( O O < ( z < 1 w < 7 f s & O # > > = # f 1.( O O < ( z 1 1 s < 7 f s & O # > > = # s 1.( O O , ' z 1 1 s < 3 f f & O # > > = ",
"6.1.A & - s s , > < > - - = # O O # # # # U 1.1.A & - s s , > < > - - = # O O # # # # U 1.1.U & - s s , > < > - - = # O O # # # ",
"( *.p.= # - , > > : - # O # - - &     O - H ( *.g.= # - , > > : - # O # = - & .   O - A ( *.g.= # - , > > : - # O O = - & O   O ",
"Q { ( & O     = : - # # # & w.6.z #   = Q f U { ( & O     & : - # # # & 6.r.z #   = Q z U { ( & O     & : - # # # & 6.w.z #   & ",
"z z z z - O   O O O   z w.6.1.X.N # O = N f z z z z - O   O O O   s w.6.1.X.A # O = N f z z z z ; O   O O O   s w.6.1.X.A # O & ",
"< 2 f H < #       O - { p.w.( H s # O & ; > , 2 s H < #       O = { p.w.( H s # O & ; > , 2 s H 1 #       . = ( p.t.( H s # O # ",
"& > 9 s 1 = O     O f U ( Q z 9 < # O # & # & > 7 s 1 - O     O s U ( Q z 9 < # O # & # & > 7 s 1 - O     O s U ( Q z 9 1 # O # ",
"# & > 7 1 - O   O # # , f f s 1 - #   < w.& O & > 7 1 - @   O # # > f f s 1 - #   < w.& O & > 7 1 - #   O # # > f f s 1 - # O - ",
"& # $ & & # O O > { # > f s 1 = O O z 1.*.1 & # $ & & # O O > { # > f s 1 = O   s -.*.1 & # $ & & # # O > { # ; f s 1 = O   s *.",
"& O O & # O # = A 4.O & > 1 > # O < 1.4.H f = O O & # O # = A 6.# & > 1 > # O > 1.6.H z = O O & $ O O & z 6.# & > 1 > # O > *.w.",
"& # & s > O # s { A #   O - ; # & g.-.H 9 7 & # & s > O O s { A #   O - ; # & g.1.H 9 7 = # & s > O O s { H #   O - ; # & g.1.U ",
"O > g.c.s O O s Q z A &   # # O & { { z > $ O > g.c.z O O 9 Q z A &   # # O & { ..N > % O > g.c.z O   7 _ z A &   # # O & { { A ",
"s #.6.6.( > O 1 N f A 1 = O O = 7 A A 9 ; # 7 *.6.6.( > O 1 N f A 1 = O O & 7 A A 9 ; # 1 #.6.6.( > O 1 N f A 1 = + O & 7 N A s ",
"X.w.U U ' N # > 9 s 2 s 1 #   > U 7 2 > & # ( w.Q U ' A # > 9 s 2 s 1 #   ; U 7 2 > & # U t.Q U ( A # > 9 s 3 s 1 $   - U 7 2 < ",
"h Q s s H z # = < 7 > 1 2 ; O = 2 : ; &   # 7 Q f s H z # = , 7 > 1 2 ; O = 2 : ; &   # 2 ( f s A N # = , 9 > 1 2 ; O & 2 : ; & ",
"s z s , 7 1 O O & > > > > ; # # # O O O # < s z s , 3 1 O O & > > > > : # # # O O O # < s z s < 2 2 O O % > > > > : # # # O O O ",
"1 2 s > - &     O & # # & & # > z > # O # 7 2 1 s > - &     O & # # $ & # > A > # O # 7 2 1 s > - &     O & # # $ & # > A > # O ",
"> , 2 > #     & = - # O O O O z g.( > # # , > > 2 > $     & = - # O O O O z g.' > # # , > > 2 > %     # = - & O O O O s g.' > & ",
"= : > : & O # *.c.g.{ - # # O < ' z U 1 # # = : > : & O # *.c.x.{ > # # O < ' f U 1 # # = : > : & O # X.c.x.{ > # # O , ' f U s ",
"O O O O O = 1.1.-.*.{ A z s # < U < s s > O O O O O O & 1.1.-.*...H z s & , Q < s s > O O O O O O & *.1.-.*...H z s & > Q < s f ",
"        & 7 w.{ H U ' Q Q ( & > A 1 1 < - O         & 7 w.{ H U ' ( Q ( & > A 1 1 < - O         & 7 w.{ H U ' ( Q ( & > A 1 1 < ",
"& #   O < { ( f 9 f U z N U & = 1 7 , & # & & #   O < { ~ f 9 f U z z U & = 1 7 , = # & & #   O , { ( f 9 f U N z U & = 1 7 , = ",
"p.{ # O < ( f < 1 9 , 2 s 9 & O # > > & # A w.X.# O < ( f < 1 9 , 2 s 9 & O + : > = # N r.X.# O > ( f < < 9 , 2 s s & O O : > = ",
"-.1.X.& - 7 s , > , > = & & # O O + # O # U *.1.X.& = 7 s , > , > = & & # O O + # O # U *.1.X.& = 7 s , > , > - & & # O O + # + ",
"( *.w.& # & > > > : = # O # > > = O   # > A ( *.w.= # & > > > ; = # O # > > = O   # > A ( *.p.= # & > > > : = # O @ > < = O   O ",
"U ' U = O     & ; - # # & = w.w.z #   = ( f H ' Q = O     & ; - # # & = w.w.N #   = ( f H ' Q = O     & ; - # # & & 6.w.A #   & ",
"f z z H > O   o O O   A g.p.*...z # O = z f f z z H > O   o O O   A g.p.*.X.A # O = z f f z z P > O   X O O   z j.g.-.X.A # O & ",
"> 1 f A < &       O > { w.6.U A 7 # O # = = > 1 s A 1 &       O > { w.6.Q A 9 # O # = = > 1 s A 1 &       O > ' w.6.Q A r # O # ",
"& > 3 s 1 - O     O 7 A U U f 9 , # O & > # & > 2 s 1 - O     O 7 A U U f 9 , # O & > # & : 2 s 1 - O     O 7 A U U z 9 < # O # ",
"# $ > 2 < = #   O # # > f s s < = # O 1 p.& O # > 2 < - #   O # # > f s s 1 - # O 1 p.& O # : 2 < - #   O # # > f s s 1 - # O > ",
"& # # # # # O O < *.# > f s < & O O U 6.X.7 & # # # # # O O < *.# ; f s < & O O U 6.X.7 & # # # # # O O > 1.# - f s < & O   A 6.",
"& O # = & O # - A 1.O $ > 1 > # O 2 1.1.A f = O # = & O # = A 1.# # > 1 > # O 1 1.1.A f = O # = & O O = A 1.# # > 1 > # O 1 *.6."
};
