/* XPM */
static char *_096ca66a1644857b60781dfc69d63442nf9tGUwGMMxHvBz[] = {
/* columns rows colors chars-per-pixel */
"64 64 67 1 ",
"  c #372A17",
". c #372A18",
"X c #3B2E1B",
"o c #3E311E",
"O c #3F3220",
"+ c #42341E",
"@ c #433521",
"# c #463824",
"$ c #4A3B25",
"% c #4C3D28",
"& c #4F4029",
"* c #504027",
"= c #534229",
"- c #59472C",
"; c #5E4A2E",
": c #5F4C30",
"> c #624E2E",
", c #65502F",
"< c #68522F",
"1 c #624F30",
"2 c #665131",
"3 c #6A5534",
"4 c #6D5735",
"5 c #6C5736",
"6 c #6D5837",
"7 c #6E5938",
"8 c #705936",
"9 c #705A39",
"0 c #735B39",
"q c #725C39",
"w c #755E3A",
"e c #785F3B",
"r c #785F3C",
"t c #7A613D",
"y c #7C623E",
"u c #7F643F",
"i c #82663D",
"p c #83673E",
"a c #86693D",
"s c #896B3F",
"d c #806540",
"f c #856A41",
"g c #886B41",
"h c #896C42",
"j c #8C6E42",
"k c #8B6E44",
"l c #8D6F44",
"z c #8E7044",
"x c #8F7246",
"c c #907244",
"v c #937345",
"b c #907246",
"n c #937547",
"m c #947547",
"M c #917348",
"N c #917448",
"B c #957749",
"V c #987748",
"C c #97784A",
"Z c #997949",
"A c #9B7B4B",
"S c #9B7B4C",
"D c #9C7B4C",
"F c #9C7C4D",
"G c #9F7F50",
"H c #A07F50",
"J c #A08050",
/* pixels */
"###%23335559BSFb#Xo@2669bmmh$@@@>22222222223tyyt7667tyyt5336BFFF",
"###%23335559BSFb#Xo@2669bmmh$@@@>22222222223tyyt7667tyyt5336BFFF",
"###%23335559BFFb#Xo@2669bmmj$@@@>22222222223tyyt7667tyyt5336BFFF",
"###$23235559kxbf#oo@5qqwghjp%@@$25532>>12223yddy5333tyyt2225BDSS",
"@@@@>2,27773#+++ooo$hmnh=$$%;>>2xnmh%++#1225bZCx-&*=wyyw=%%-jmmm",
"ooo@>,,27773o ..ooo$xZZx$@@@>225nZZx#XX+>226BZZb=$$*wyyw*%%=jmmm",
"ooo@>,,27793o..Xooo$xZZx$@@@>225nZZx#Xo@>226BZZb=$%*wyyw*%%=jmmm",
"ooo@>,>26772oXXX@@@%xZZx$@@@>225nZZx#Xo+>225bVZx=$%*wyyw*%%=jmmm",
"XXXo;;;;,,,>@@@@;113nZZx$oo@>225nZZl#XX+>223yddt*%%*wyyw*%$=xZZZ",
"XXXo-;;;>>>>@@@#2226nZZx#oo@>225bZZl#XX+>223tyyw*%%*wyyw*%$=bZZZ",
"XXXo;;::>>>>@@@#1225nZZx#oo@>225bZZl#XX+>223tyyw*%%*wyyw*%$=bZZZ",
"++++-;;;>>>>@@@#2338bBBh#oo@>225bZZl#XX+>223ypdt*$$*tddt*$$=lBBB",
"2222%$$$>>>;@@@#9tttppde@oo@1225nZZl#XX+>225xBBh#oo#xSSx%@@$rduu",
"6663$##$;>>;@@@#wyyyyyyw@oo@1225nZZl#XX+>225nZZx#XX#bFFN%@@$wyyy",
"6663$##$;>>;@OO#wyyyyyyw@oo@1225nZZl#XX+>225nZZl#XX#bFFN%@@$wyyy",
"6663$##$>>>>#@@$wyyyyyyw$@@#1225xnmh#XX+1326nZZx#XX#bFFM%@@$wyyy",
"3332#@@#23331>>2tyyyyyyt322222229qq6#@@#2336BZZx#XX#xSSx#XX@wyyy",
"3332#@@#25552223tyyyyyyt655522226773#@@#2338BZZx#XX#xZZx#XX@wyyy",
"3332#@@#25532223tyyyyyyt655322226773#@@#2338mZZx#XX#xZZx#XX@wyyy",
"3332$@@$25532223yddutttr533322226773#@@#2336nZZx#oo#lCCl#XX@9ttt",
"5553;;;;35532225bBBb8333222233333352@oo@2335jbba#oo@rddr#oo@2333",
"55531;;135532225BZZB6222222233333332@oo@2335sjsa#oo@wyyw#@@@>222",
"5553:;;:35532225BZZB6222222233333332@oo@2335sbba#oo@wyyw#@@@>222",
"5553111123332225BZZB5222222222226883@oo@2536assp@oo@wyyw#OO@1222",
"2223errw=***3339bZZb<>>>2221@++#pjjp@XX@9ttw1>>;X..+9yyw@oo@3666",
"2223tyyw*$$*3559bBBb<>>>222>+XX@abba@XX@wyyr;--=X  o9yyw@oo@3777",
"2223tyyw*%%*3559bmBb<>>>222>+XX@abba@XX@wyyr;--=X  o9yyw@oo@3777",
"2223yddt*$$%3559nZZb>;;>5662@XX#sbbs@XX@wyyr;=-=+XX+wyyw@oo@3777",
"3338bBCl$oo@2339BSSb%++$hBBh$@@%xZZj@XX+wyyw*%%*;>>>ryyw#oo@3777",
"3339BZZx#oo@2339BSFb#XX#xSSb%@@%xZZx@XX+wyyw*%%%>222tyyw#oo@3777",
"3339BZZx#oo@2339BSFb#XX#xSSb%@@%xZZx@XX+wyyw*%%%>222tyyw#oo@3777",
"3338BZZx#oo@2539BZSx#oo#hBBh$@@$hBBh@XX+wuur*$$%>222ett9#oo@3999",
"3336nZZx$oo@397wbmmh$+@#3663#@@#3663#@@$abba#oo+25335562@oo#9ttt",
"3336nZZx$oo@399wbmmh$@@#2332@@@@2332#@@%hmms@XX+25553332@oo#wyyy",
"3336nZZx$oo@599wbmmh$+@@2332@OO@2332#@@%hbms@XX+25553332@oo#wyyy",
"3336BZZx$OO#377qhbbf*$$%122>$@@$2332#@@$hmmg#XX@25558883@oo#wyyy",
"3336BFFN&##$2223999wghhp%##$12223332+XX+hmmh$@@#2338jbbf$@@$wyyy",
"3336BFFN*##$12225669bmmh%@@#23333332oX.+hmmh%@@#2338bmmh$@@$wyyy",
"3336BFFN*##$12225669bmmh%@@#23333332o..+hmmh%@@#2358bmmh$@@$wttt",
"2223NZSx&##$12225558bmmh$@@#2333222>+XX#jBmj%@@#2558bmmj$@@$euuu",
"$$$*tddr$@@#23332225bmmh+XX+>,,>@@@@---1BFFN$@@@2338BZSb%@@%gbbb",
"###%wyyw#O@@23332225bmmh+XXo;>>;@oo@;;:2SHJB$O@@2338BSFb%@@%hmmm",
"###%wyyw#@@@23332225bmVj+XXo;>>;@oo@;:;2SHJB$O@@2338BSFb%@@%hmmm",
"###$wyyw#O@@23332225bBVj@XX+,33,@oo+;:;2SGHN$oo@2338BSSb%@@%jmmm",
"ooO#wyyw#oo@>222677qBZZx%@@$hBBh+..X-;;2BFFN#oo@2539nZZj#XX#xSZZ",
"ooo@wyyw#oo@>222777wBZZb%@@%bSSx+..X-;;2BFFN#Xo@2559bBZj#XX#bFSS",
"ooo@wyyw#oo@>222777wBZZx%@@%bZSx+..X-;;2BFFN#Xo@2559bZZj#XX#bFSS",
"ooo@rddr@oo@>222777wBZZx$@@%kBBh+.Xo;;;2BFFM#Xo@2539jbbf@XX#xSSS",
"XXX@lCCk+XXo>2223539BZZx+XX+3883@oo@>,>3bZZj#XX+23332<<>@oo$xZZZ",
"XXX@xZZx+.Xo>2223339BZZx+..o2332@oo@>,,3bBZj#XX+2333>>>;@@O$xZZZ",
"XXX@xSSb+..o>2223339BZZx+ .o2332@oo@>,,3bZZj#XX+2333>>>;@Oo$xZZZ",
"XXX@hBBh#XX+>2223338bBCk+XX+2332$@@#>,>3jbbf@XX+23332<<>%$$*fljj",
"@@@#5qq7;--;33333223yddt*$$%37763232>>>>5552@oo@2336hxjxbMNh%+@@",
"@@@#26631;;135552223tyyw*%%*37776665>>>>222>+oo@2336xmmmFFFb@XXX",
"@@@#3663:;;:35552223tyyw*%%*37776665>>>>222>+oo@2336xmmmFFFb@XXX",
"@@@@2653222222222223tyyw*%%&23339998,>>,5552@XX+2336jbbbbbMf#ooo",
"XXXo>225hbbf%@@$2355tyyw*%%$@@@%ajjg5225xnng@XX+>2,2yuue%##$;>>>",
"XXXo>225bZZj$OO@2355tyyw*%%$ooo#sbbj5225mZZl@XX+>,,2tyyw@XX+>222",
"XXXo>225bVZj$O@@2355tyyw*$%$+oo#sbbj5225nZZl@XX+>,,2tyyw@XX+>222",
"ooo+>225xmmh$oO@2335rttw=%&%+oo#pjjs5225xnng@XX+>,,2wtt9#++#2333",
"---;2223yupw@oo@>,,,3333222>@OO@266555555552o  X>2223333>>>>wttt",
";;;:2223tyyw@oo@;>>,23332221#@@@23335553222>X  X>22233322,,2tyyy",
";;;;2223tyyw@oo@;>>,23332221@@@@23335553222>X  X>2223333,,,2tyyy",
";;;;2223tyyw@oo@;>>,23332221@@@@23335553222>X  X>2223333,,,2tyyy"
};
